G04 #@! TF.GenerationSoftware,KiCad,Pcbnew,(5.0.0)*
G04 #@! TF.CreationDate,2018-08-03T17:44:41+02:00*
G04 #@! TF.ProjectId,half_bridge_driver,68616C665F6272696467655F64726976,rev?*
G04 #@! TF.SameCoordinates,Original*
G04 #@! TF.FileFunction,Soldermask,Top*
G04 #@! TF.FilePolarity,Negative*
%FSLAX46Y46*%
G04 Gerber Fmt 4.6, Leading zero omitted, Abs format (unit mm)*
G04 Created by KiCad (PCBNEW (5.0.0)) date 08/03/18 17:44:41*
%MOMM*%
%LPD*%
G01*
G04 APERTURE LIST*
%ADD10C,0.100000*%
%ADD11C,0.900000*%
%ADD12R,2.900000X2.400000*%
%ADD13R,2.900000X1.400000*%
%ADD14R,2.700000X1.500000*%
%ADD15R,1.960000X1.050000*%
G04 APERTURE END LIST*
D10*
G04 #@! TO.C,J4*
G36*
X157597054Y-88551083D02*
X157618895Y-88554323D01*
X157640314Y-88559688D01*
X157661104Y-88567127D01*
X157681064Y-88576568D01*
X157700003Y-88587919D01*
X157717738Y-88601073D01*
X157734099Y-88615901D01*
X157748927Y-88632262D01*
X157762081Y-88649997D01*
X157773432Y-88668936D01*
X157782873Y-88688896D01*
X157790312Y-88709686D01*
X157795677Y-88731105D01*
X157798917Y-88752946D01*
X157800000Y-88775000D01*
X157800000Y-89225000D01*
X157798917Y-89247054D01*
X157795677Y-89268895D01*
X157790312Y-89290314D01*
X157782873Y-89311104D01*
X157773432Y-89331064D01*
X157762081Y-89350003D01*
X157748927Y-89367738D01*
X157734099Y-89384099D01*
X157717738Y-89398927D01*
X157700003Y-89412081D01*
X157681064Y-89423432D01*
X157661104Y-89432873D01*
X157640314Y-89440312D01*
X157618895Y-89445677D01*
X157597054Y-89448917D01*
X157575000Y-89450000D01*
X156625000Y-89450000D01*
X156602946Y-89448917D01*
X156581105Y-89445677D01*
X156559686Y-89440312D01*
X156538896Y-89432873D01*
X156518936Y-89423432D01*
X156499997Y-89412081D01*
X156482262Y-89398927D01*
X156465901Y-89384099D01*
X156451073Y-89367738D01*
X156437919Y-89350003D01*
X156426568Y-89331064D01*
X156417127Y-89311104D01*
X156409688Y-89290314D01*
X156404323Y-89268895D01*
X156401083Y-89247054D01*
X156400000Y-89225000D01*
X156400000Y-88775000D01*
X156401083Y-88752946D01*
X156404323Y-88731105D01*
X156409688Y-88709686D01*
X156417127Y-88688896D01*
X156426568Y-88668936D01*
X156437919Y-88649997D01*
X156451073Y-88632262D01*
X156465901Y-88615901D01*
X156482262Y-88601073D01*
X156499997Y-88587919D01*
X156518936Y-88576568D01*
X156538896Y-88567127D01*
X156559686Y-88559688D01*
X156581105Y-88554323D01*
X156602946Y-88551083D01*
X156625000Y-88550000D01*
X157575000Y-88550000D01*
X157597054Y-88551083D01*
X157597054Y-88551083D01*
G37*
D11*
X157100000Y-89000000D03*
G04 #@! TD*
D10*
G04 #@! TO.C,J3*
G36*
X136797054Y-88551083D02*
X136818895Y-88554323D01*
X136840314Y-88559688D01*
X136861104Y-88567127D01*
X136881064Y-88576568D01*
X136900003Y-88587919D01*
X136917738Y-88601073D01*
X136934099Y-88615901D01*
X136948927Y-88632262D01*
X136962081Y-88649997D01*
X136973432Y-88668936D01*
X136982873Y-88688896D01*
X136990312Y-88709686D01*
X136995677Y-88731105D01*
X136998917Y-88752946D01*
X137000000Y-88775000D01*
X137000000Y-89225000D01*
X136998917Y-89247054D01*
X136995677Y-89268895D01*
X136990312Y-89290314D01*
X136982873Y-89311104D01*
X136973432Y-89331064D01*
X136962081Y-89350003D01*
X136948927Y-89367738D01*
X136934099Y-89384099D01*
X136917738Y-89398927D01*
X136900003Y-89412081D01*
X136881064Y-89423432D01*
X136861104Y-89432873D01*
X136840314Y-89440312D01*
X136818895Y-89445677D01*
X136797054Y-89448917D01*
X136775000Y-89450000D01*
X135825000Y-89450000D01*
X135802946Y-89448917D01*
X135781105Y-89445677D01*
X135759686Y-89440312D01*
X135738896Y-89432873D01*
X135718936Y-89423432D01*
X135699997Y-89412081D01*
X135682262Y-89398927D01*
X135665901Y-89384099D01*
X135651073Y-89367738D01*
X135637919Y-89350003D01*
X135626568Y-89331064D01*
X135617127Y-89311104D01*
X135609688Y-89290314D01*
X135604323Y-89268895D01*
X135601083Y-89247054D01*
X135600000Y-89225000D01*
X135600000Y-88775000D01*
X135601083Y-88752946D01*
X135604323Y-88731105D01*
X135609688Y-88709686D01*
X135617127Y-88688896D01*
X135626568Y-88668936D01*
X135637919Y-88649997D01*
X135651073Y-88632262D01*
X135665901Y-88615901D01*
X135682262Y-88601073D01*
X135699997Y-88587919D01*
X135718936Y-88576568D01*
X135738896Y-88567127D01*
X135759686Y-88559688D01*
X135781105Y-88554323D01*
X135802946Y-88551083D01*
X135825000Y-88550000D01*
X136775000Y-88550000D01*
X136797054Y-88551083D01*
X136797054Y-88551083D01*
G37*
D11*
X136300000Y-89000000D03*
G04 #@! TD*
D10*
G04 #@! TO.C,J1*
G36*
X136797054Y-89551083D02*
X136818895Y-89554323D01*
X136840314Y-89559688D01*
X136861104Y-89567127D01*
X136881064Y-89576568D01*
X136900003Y-89587919D01*
X136917738Y-89601073D01*
X136934099Y-89615901D01*
X136948927Y-89632262D01*
X136962081Y-89649997D01*
X136973432Y-89668936D01*
X136982873Y-89688896D01*
X136990312Y-89709686D01*
X136995677Y-89731105D01*
X136998917Y-89752946D01*
X137000000Y-89775000D01*
X137000000Y-90225000D01*
X136998917Y-90247054D01*
X136995677Y-90268895D01*
X136990312Y-90290314D01*
X136982873Y-90311104D01*
X136973432Y-90331064D01*
X136962081Y-90350003D01*
X136948927Y-90367738D01*
X136934099Y-90384099D01*
X136917738Y-90398927D01*
X136900003Y-90412081D01*
X136881064Y-90423432D01*
X136861104Y-90432873D01*
X136840314Y-90440312D01*
X136818895Y-90445677D01*
X136797054Y-90448917D01*
X136775000Y-90450000D01*
X135825000Y-90450000D01*
X135802946Y-90448917D01*
X135781105Y-90445677D01*
X135759686Y-90440312D01*
X135738896Y-90432873D01*
X135718936Y-90423432D01*
X135699997Y-90412081D01*
X135682262Y-90398927D01*
X135665901Y-90384099D01*
X135651073Y-90367738D01*
X135637919Y-90350003D01*
X135626568Y-90331064D01*
X135617127Y-90311104D01*
X135609688Y-90290314D01*
X135604323Y-90268895D01*
X135601083Y-90247054D01*
X135600000Y-90225000D01*
X135600000Y-89775000D01*
X135601083Y-89752946D01*
X135604323Y-89731105D01*
X135609688Y-89709686D01*
X135617127Y-89688896D01*
X135626568Y-89668936D01*
X135637919Y-89649997D01*
X135651073Y-89632262D01*
X135665901Y-89615901D01*
X135682262Y-89601073D01*
X135699997Y-89587919D01*
X135718936Y-89576568D01*
X135738896Y-89567127D01*
X135759686Y-89559688D01*
X135781105Y-89554323D01*
X135802946Y-89551083D01*
X135825000Y-89550000D01*
X136775000Y-89550000D01*
X136797054Y-89551083D01*
X136797054Y-89551083D01*
G37*
D11*
X136300000Y-90000000D03*
G04 #@! TD*
D12*
G04 #@! TO.C,C1*
X143500000Y-88500000D03*
D13*
X143500000Y-91500000D03*
G04 #@! TD*
D12*
G04 #@! TO.C,C2*
X149500000Y-88500000D03*
X149500000Y-91500000D03*
G04 #@! TD*
D14*
G04 #@! TO.C,D1*
X146500000Y-87850000D03*
X146500000Y-92150000D03*
G04 #@! TD*
D10*
G04 #@! TO.C,J2*
G36*
X157597054Y-89551083D02*
X157618895Y-89554323D01*
X157640314Y-89559688D01*
X157661104Y-89567127D01*
X157681064Y-89576568D01*
X157700003Y-89587919D01*
X157717738Y-89601073D01*
X157734099Y-89615901D01*
X157748927Y-89632262D01*
X157762081Y-89649997D01*
X157773432Y-89668936D01*
X157782873Y-89688896D01*
X157790312Y-89709686D01*
X157795677Y-89731105D01*
X157798917Y-89752946D01*
X157800000Y-89775000D01*
X157800000Y-90225000D01*
X157798917Y-90247054D01*
X157795677Y-90268895D01*
X157790312Y-90290314D01*
X157782873Y-90311104D01*
X157773432Y-90331064D01*
X157762081Y-90350003D01*
X157748927Y-90367738D01*
X157734099Y-90384099D01*
X157717738Y-90398927D01*
X157700003Y-90412081D01*
X157681064Y-90423432D01*
X157661104Y-90432873D01*
X157640314Y-90440312D01*
X157618895Y-90445677D01*
X157597054Y-90448917D01*
X157575000Y-90450000D01*
X156625000Y-90450000D01*
X156602946Y-90448917D01*
X156581105Y-90445677D01*
X156559686Y-90440312D01*
X156538896Y-90432873D01*
X156518936Y-90423432D01*
X156499997Y-90412081D01*
X156482262Y-90398927D01*
X156465901Y-90384099D01*
X156451073Y-90367738D01*
X156437919Y-90350003D01*
X156426568Y-90331064D01*
X156417127Y-90311104D01*
X156409688Y-90290314D01*
X156404323Y-90268895D01*
X156401083Y-90247054D01*
X156400000Y-90225000D01*
X156400000Y-89775000D01*
X156401083Y-89752946D01*
X156404323Y-89731105D01*
X156409688Y-89709686D01*
X156417127Y-89688896D01*
X156426568Y-89668936D01*
X156437919Y-89649997D01*
X156451073Y-89632262D01*
X156465901Y-89615901D01*
X156482262Y-89601073D01*
X156499997Y-89587919D01*
X156518936Y-89576568D01*
X156538896Y-89567127D01*
X156559686Y-89559688D01*
X156581105Y-89554323D01*
X156602946Y-89551083D01*
X156625000Y-89550000D01*
X157575000Y-89550000D01*
X157597054Y-89551083D01*
X157597054Y-89551083D01*
G37*
D11*
X157100000Y-90000000D03*
G04 #@! TD*
D15*
G04 #@! TO.C,U1*
X138000000Y-90000000D03*
X138000000Y-90950000D03*
X138000000Y-89050000D03*
X140700000Y-89050000D03*
X140700000Y-90000000D03*
X140700000Y-90950000D03*
G04 #@! TD*
G04 #@! TO.C,U2*
X152650000Y-89000000D03*
X152650000Y-89950000D03*
X152650000Y-90900000D03*
X155350000Y-90900000D03*
X155350000Y-89000000D03*
X155350000Y-89950000D03*
G04 #@! TD*
M02*
