G04 #@! TF.GenerationSoftware,KiCad,Pcbnew,(5.0.0)*
G04 #@! TF.CreationDate,2018-08-03T17:44:41+02:00*
G04 #@! TF.ProjectId,half_bridge_driver,68616C665F6272696467655F64726976,rev?*
G04 #@! TF.SameCoordinates,Original*
G04 #@! TF.FileFunction,Copper,L2,Bot,Signal*
G04 #@! TF.FilePolarity,Positive*
%FSLAX46Y46*%
G04 Gerber Fmt 4.6, Leading zero omitted, Abs format (unit mm)*
G04 Created by KiCad (PCBNEW (5.0.0)) date 08/03/18 17:44:41*
%MOMM*%
%LPD*%
G01*
G04 APERTURE LIST*
G04 #@! TA.AperFunction,ViaPad*
%ADD10C,0.800000*%
G04 #@! TD*
G04 #@! TA.AperFunction,Conductor*
%ADD11C,0.250000*%
G04 #@! TD*
G04 #@! TA.AperFunction,Conductor*
%ADD12C,0.254000*%
G04 #@! TD*
G04 APERTURE END LIST*
D10*
G04 #@! TO.N,/GND_High_Side*
X139750000Y-87675000D03*
G04 #@! TO.N,GND*
X153500000Y-92250000D03*
G04 #@! TO.N,/High_Side_MOSFET_Gate*
X137250000Y-87750000D03*
X136250000Y-92250000D03*
G04 #@! TO.N,/Low_Side_MOSFET_Gate*
X157000000Y-87750000D03*
X156750000Y-92325000D03*
G04 #@! TD*
D11*
G04 #@! TO.N,/High_Side_MOSFET_Gate*
X136684315Y-87750000D02*
X136000000Y-88434315D01*
X137250000Y-87750000D02*
X136684315Y-87750000D01*
X136000000Y-88434315D02*
X136000000Y-92000000D01*
X136000000Y-92000000D02*
X136250000Y-92250000D01*
G04 #@! TO.N,/Low_Side_MOSFET_Gate*
X157399999Y-88149999D02*
X157899999Y-88149999D01*
X157000000Y-87750000D02*
X157399999Y-88149999D01*
X157899999Y-88149999D02*
X158000000Y-88250000D01*
X158000000Y-88250000D02*
X158000000Y-91500000D01*
X158000000Y-91500000D02*
X157175000Y-92325000D01*
X157175000Y-92325000D02*
X156750000Y-92325000D01*
G04 #@! TD*
D12*
G04 #@! TO.N,/GND_High_Side*
G36*
X155965000Y-87955874D02*
X156122569Y-88336280D01*
X156413720Y-88627431D01*
X156794126Y-88785000D01*
X156982382Y-88785000D01*
X157103462Y-88865903D01*
X157240000Y-88893062D01*
X157240001Y-91185197D01*
X157082676Y-91342523D01*
X156955874Y-91290000D01*
X156544126Y-91290000D01*
X156163720Y-91447569D01*
X155872569Y-91738720D01*
X155715000Y-92119126D01*
X155715000Y-92290000D01*
X154535000Y-92290000D01*
X154535000Y-92044126D01*
X154377431Y-91663720D01*
X154086280Y-91372569D01*
X153705874Y-91215000D01*
X153294126Y-91215000D01*
X152913720Y-91372569D01*
X152622569Y-91663720D01*
X152465000Y-92044126D01*
X152465000Y-92290000D01*
X137285000Y-92290000D01*
X137285000Y-92044126D01*
X137127431Y-91663720D01*
X136836280Y-91372569D01*
X136760000Y-91340973D01*
X136760000Y-88749116D01*
X136817845Y-88691272D01*
X137044126Y-88785000D01*
X137455874Y-88785000D01*
X137836280Y-88627431D01*
X138127431Y-88336280D01*
X138285000Y-87955874D01*
X138285000Y-87710000D01*
X155965000Y-87710000D01*
X155965000Y-87955874D01*
X155965000Y-87955874D01*
G37*
X155965000Y-87955874D02*
X156122569Y-88336280D01*
X156413720Y-88627431D01*
X156794126Y-88785000D01*
X156982382Y-88785000D01*
X157103462Y-88865903D01*
X157240000Y-88893062D01*
X157240001Y-91185197D01*
X157082676Y-91342523D01*
X156955874Y-91290000D01*
X156544126Y-91290000D01*
X156163720Y-91447569D01*
X155872569Y-91738720D01*
X155715000Y-92119126D01*
X155715000Y-92290000D01*
X154535000Y-92290000D01*
X154535000Y-92044126D01*
X154377431Y-91663720D01*
X154086280Y-91372569D01*
X153705874Y-91215000D01*
X153294126Y-91215000D01*
X152913720Y-91372569D01*
X152622569Y-91663720D01*
X152465000Y-92044126D01*
X152465000Y-92290000D01*
X137285000Y-92290000D01*
X137285000Y-92044126D01*
X137127431Y-91663720D01*
X136836280Y-91372569D01*
X136760000Y-91340973D01*
X136760000Y-88749116D01*
X136817845Y-88691272D01*
X137044126Y-88785000D01*
X137455874Y-88785000D01*
X137836280Y-88627431D01*
X138127431Y-88336280D01*
X138285000Y-87955874D01*
X138285000Y-87710000D01*
X155965000Y-87710000D01*
X155965000Y-87955874D01*
G04 #@! TD*
M02*
