%FSLAX45Y45*%
G04 Gerber Fmt 4.5, Leading zero omitted, Abs format (unit mm)*
G04 Created by KiCad (PCBNEW (5.0.0)) date 08/03/18 17:44:43*
%MOMM*%
%LPD*%
G01*
G04 APERTURE LIST*
%ADD10C,0.150000*%
%ADD11C,0.200000*%
%ADD12C,0.300000*%
G04 APERTURE END LIST*
D10*
X15850000Y-9300000D02*
X15550000Y-9300000D01*
X15850000Y-8700000D02*
X15850000Y-9300000D01*
X15550000Y-8700000D02*
X15850000Y-8700000D01*
X13550000Y-9300000D02*
X13550000Y-8700000D01*
X15550000Y-9300000D02*
X13550000Y-9300000D01*
X13550000Y-8700000D02*
X15550000Y-8700000D01*
D11*
D12*
X13828928Y-9773214D02*
X13828928Y-9473214D01*
X13900357Y-9473214D01*
X13943214Y-9487500D01*
X13971786Y-9516072D01*
X13986071Y-9544643D01*
X14000357Y-9601786D01*
X14000357Y-9644643D01*
X13986071Y-9701786D01*
X13971786Y-9730357D01*
X13943214Y-9758929D01*
X13900357Y-9773214D01*
X13828928Y-9773214D01*
X14128928Y-9773214D02*
X14128928Y-9573214D01*
X14128928Y-9630357D02*
X14143214Y-9601786D01*
X14157500Y-9587500D01*
X14186071Y-9573214D01*
X14214643Y-9573214D01*
X14314643Y-9773214D02*
X14314643Y-9573214D01*
X14314643Y-9473214D02*
X14300357Y-9487500D01*
X14314643Y-9501786D01*
X14328928Y-9487500D01*
X14314643Y-9473214D01*
X14314643Y-9501786D01*
X14500357Y-9773214D02*
X14471786Y-9758929D01*
X14457500Y-9730357D01*
X14457500Y-9473214D01*
X14657500Y-9773214D02*
X14628928Y-9758929D01*
X14614643Y-9730357D01*
X14614643Y-9473214D01*
X15000357Y-9773214D02*
X15000357Y-9473214D01*
X15100357Y-9687500D01*
X15200357Y-9473214D01*
X15200357Y-9773214D01*
X15471786Y-9773214D02*
X15471786Y-9616072D01*
X15457500Y-9587500D01*
X15428928Y-9573214D01*
X15371786Y-9573214D01*
X15343214Y-9587500D01*
X15471786Y-9758929D02*
X15443214Y-9773214D01*
X15371786Y-9773214D01*
X15343214Y-9758929D01*
X15328928Y-9730357D01*
X15328928Y-9701786D01*
X15343214Y-9673214D01*
X15371786Y-9658929D01*
X15443214Y-9658929D01*
X15471786Y-9644643D01*
X15614643Y-9573214D02*
X15614643Y-9873214D01*
X15614643Y-9587500D02*
X15643214Y-9573214D01*
X15700357Y-9573214D01*
X15728928Y-9587500D01*
X15743214Y-9601786D01*
X15757500Y-9630357D01*
X15757500Y-9716072D01*
X15743214Y-9744643D01*
X15728928Y-9758929D01*
X15700357Y-9773214D01*
X15643214Y-9773214D01*
X15614643Y-9758929D01*
X15886071Y-9744643D02*
X15900357Y-9758929D01*
X15886071Y-9773214D01*
X15871786Y-9758929D01*
X15886071Y-9744643D01*
X15886071Y-9773214D01*
X15886071Y-9587500D02*
X15900357Y-9601786D01*
X15886071Y-9616072D01*
X15871786Y-9601786D01*
X15886071Y-9587500D01*
X15886071Y-9616072D01*
M02*
